<?xml version="1.0" encoding="UTF-8" standalone="no"?>
<svg width="60px" height="60px" viewBox="0 0 60 60" version="1.1" xmlns="http://www.w3.org/2000/svg" xmlns:xlink="http://www.w3.org/1999/xlink">
    <!-- Generator: Sketch 40.3 (33839) - http://www.bohemiancoding.com/sketch -->
    <title>icon_uarmplay</title>
    <desc>Created with Sketch.</desc>
    <defs>
        <rect id="path-1" x="0" y="0" width="60" height="60" rx="10"></rect>
        <rect id="path-3" x="0" y="0" width="60" height="60"></rect>
    </defs>
    <g id="Page-1" stroke="none" stroke-width="1" fill="none" fill-rule="evenodd">
        <g id="blockly界面" transform="translate(-2020.000000, -393.000000)">
            <g id="Group-20-Copy-4" transform="translate(1879.000000, 301.000000)">
                <g id="icon_uarmplay" transform="translate(141.000000, 92.000000)">
                    <g id="Combined-Shape-+-Combined-Shape-Mask">
                        <mask id="mask-2" fill="white">
                            <use xlink:href="#path-1"></use>
                        </mask>
                        <use id="Mask" fill="#000000" xlink:href="#path-1"></use>
                    </g>
                    <g id="Group">
                        <mask id="mask-4" fill="white">
                            <use xlink:href="#path-3"></use>
                        </mask>
                        <g id="Mask"></g>
                        <g id="Group-18-Copy" mask="url(#mask-4)">
                            <g transform="translate(13.300781, 8.261719)">
                                <path d="M8.07627917,30.302668 C8.07627917,29.6564235 8.59291511,29.1325388 9.24923751,29.1325388 L24.165941,29.1325388 C24.813748,29.1325388 25.3388994,29.6618598 25.3388994,30.302668 L25.3388994,31.7482148 L17.7316085,36.1275614 C17.1660583,36.453136 16.2556851,36.4569152 15.6835701,36.1275614 L8.07627917,31.7482148 L8.07627917,30.302668 Z" id="Rectangle-14" fill="#EE6C21"></path>
                                <path d="M1.99623828,14.3832886 L3.10862447e-15,14.3832886 L3.10862447e-15,13.1224694 L3.27339103,8.54551776 L4.31873375,8.54551776 L21.3349652,1.32255603 C21.9630912,0.507291356 22.8457027,2.04281037e-14 23.8231923,2.04281037e-14 C23.9638254,2.04281037e-14 24.1024946,0.0105004586 24.2387247,0.0309078045 L26.8296914,0.0211327503 C26.836789,0.0210791827 26.8438917,0.0210523605 26.8509994,0.0210523605 C28.7577758,0.0210523605 30.3035235,1.95138716 30.3035235,4.3325758 C30.3035235,6.71376444 28.7577758,8.64409924 26.8509994,8.64409924 L26.7585132,8.64444816 L20.8464282,19.3101318 C21.9845197,19.9970127 22.7455221,21.2469491 22.744986,22.6711162 L22.7435097,26.5922266 L10.6287985,26.5922266 L10.6302748,22.6711162 C10.6310901,20.5055467 12.393334,18.7500057 14.5483203,18.7500057 L15.6304708,18.7500057 L21.7320338,7.74249481 C21.4336632,7.4584549 21.1734509,7.11509966 20.9626768,6.7265154 L7.84527293,12.294523 L7.84527293,14.349843 C7.84527293,14.3747454 7.83519693,14.3832886 7.82276757,14.3832886 L5.44876232,14.3832886 L5.46317562,17.2460938 L2.01065158,17.2460938 L1.99623828,14.3832886 Z" id="Combined-Shape" fill="#FFFFFF"></path>
                                <path d="M27.6480443,7.00160806 C28.6143255,7.00160806 29.3976512,5.82774444 29.3976512,4.37971028 C29.3976512,2.93167612 28.6143255,1.7578125 27.6480443,1.7578125 C26.6817632,1.7578125 25.8984375,2.93167612 25.8984375,4.37971028 C25.8984375,5.82774444 26.6817632,7.00160806 27.6480443,7.00160806 Z" id="Oval-4" fill="#000000"></path>
                            </g>
                        </g>
                        <g mask="url(#mask-4)" id="UARM" fill="#FFFFFF">
                            <g transform="translate(12.421875, 47.753906)">
                                <path d="M6.70359067,4.4981495 C6.70359067,5.04615014 6.59893111,5.41528393 6.38960886,5.60556193 C6.1802866,5.79583994 5.79780349,5.89097751 5.24214805,5.89097751 L1.52003637,5.89097751 C0.96438093,5.89097751 0.581897819,5.79583994 0.372575563,5.60556193 C0.163253308,5.41528393 0.05859375,5.04615014 0.05859375,4.4981495 L0.05859375,0 L1.42869621,0 L1.42869621,4.78356507 L5.33348821,4.78356507 L5.33348821,0 L6.70359067,0 L6.70359067,4.4981495 Z M16.362813,5.89097751 L14.8214477,5.89097751 L14.1135615,4.6008991 L10.3800323,4.6008991 L9.69498103,5.89097751 L8.32487858,5.89097751 L11.6587946,0 L12.9832269,0 L16.362813,5.89097751 Z M13.5426854,3.53915316 L12.2753407,1.14166231 L10.9623258,3.53915316 L13.5426854,3.53915316 Z M25.2456439,5.89097751 L23.2818304,5.89097751 L20.9069861,3.66473601 L19.6053888,3.66473601 L19.6053888,5.89097751 L18.2581214,5.89097751 L18.2581214,0 L23.3046654,0 C24.1876248,0 24.6290978,0.380550297 24.6290978,1.14166231 L24.6290978,2.5230737 C24.6290978,3.09390771 24.4007497,3.44781949 23.9440466,3.58481965 C23.7689771,3.63809749 23.2970576,3.66473601 22.5282741,3.66473601 L25.2456439,5.89097751 Z M23.3046654,2.19199163 L23.3046654,1.484161 C23.3046654,1.28627188 23.2475784,1.15688478 23.1334026,1.09599582 C23.0496737,1.04271798 22.9012475,1.01607945 22.6881193,1.01607945 L19.6053888,1.01607945 L19.6053888,2.66007318 L22.6881193,2.66007318 C22.9012475,2.66007318 23.0496737,2.63343466 23.1334026,2.58015682 C23.2475784,2.51926786 23.3046654,2.38988076 23.3046654,2.19199163 L23.3046654,2.19199163 Z M35.0989641,5.89097751 L33.8316193,5.89097751 L33.8316193,2.2262415 C33.8316193,2.09685246 33.8468425,1.8951608 33.8772894,1.62116048 C33.8087839,1.76577176 33.6946099,1.97126892 33.5347638,2.23765812 L31.3197648,5.18314688 L31.0457443,5.18314688 L28.8307454,2.2262415 C28.6708993,2.01313014 28.5529194,1.81143848 28.4768022,1.62116048 C28.4996374,1.8571052 28.5110548,2.05118585 28.5110548,2.20340826 L28.5110548,5.89097751 L27.4035553,5.89097751 L27.4035553,0 L28.5110548,0 L31.2855123,3.5619864 L34.0028821,0 L35.0989641,0 L35.0989641,5.89097751 Z"></path>
                            </g>
                        </g>
                    </g>
                </g>
            </g>
        </g>
    </g>
</svg>