<?xml version="1.0" encoding="UTF-8" standalone="no"?>
<svg width="40px" height="40px" viewBox="0 0 40 40" version="1.1" xmlns="http://www.w3.org/2000/svg" xmlns:xlink="http://www.w3.org/1999/xlink">
    <!-- Generator: Sketch 40.3 (33839) - http://www.bohemiancoding.com/sketch -->
    <title>icon_vision</title>
    <desc>Created with Sketch.</desc>
    <defs></defs>
    <g id="Page-1" stroke="none" stroke-width="1" fill="none" fill-rule="evenodd">
        <g id="us首页" transform="translate(-648.000000, -499.000000)">
            <g id="Group" transform="translate(63.000000, 56.000000)">
                <g id="Group-3-Copy-2" transform="translate(125.000000, 443.000000)">
                    <g id="Group-4" transform="translate(460.000000, 0.000000)">
                        <rect id="Rectangle-10" fill="#3C3C3C" x="0" y="0" width="40" height="40"></rect>
                        <circle id="Oval-14" stroke="#81B0D7" cx="20" cy="20" r="15"></circle>
                        <path d="M5,20 C5,19.7238576 5.21505737,19.5 5.49047852,19.5 L8.50952148,19.5 C8.78040529,19.5 9,19.7319336 9,20 C9,20.2761424 8.78494263,20.5 8.50952148,20.5 L5.49047852,20.5 C5.21959471,20.5 5,20.2680664 5,20 Z M31,20 C31,19.7238576 31.2150574,19.5 31.4904785,19.5 L34.5095215,19.5 C34.7804053,19.5 35,19.7319336 35,20 C35,20.2761424 34.7849426,20.5 34.5095215,20.5 L31.4904785,20.5 C31.2195947,20.5 31,20.2680664 31,20 Z" id="Combined-Shape" fill="#81B0D7"></path>
                        <path d="M5,20 C5,19.7238576 5.21505737,19.5 5.49047852,19.5 L8.50952148,19.5 C8.78040529,19.5 9,19.7319336 9,20 C9,20.2761424 8.78494263,20.5 8.50952148,20.5 L5.49047852,20.5 C5.21959471,20.5 5,20.2680664 5,20 Z M31,20 C31,19.7238576 31.2150574,19.5 31.4904785,19.5 L34.5095215,19.5 C34.7804053,19.5 35,19.7319336 35,20 C35,20.2761424 34.7849426,20.5 34.5095215,20.5 L31.4904785,20.5 C31.2195947,20.5 31,20.2680664 31,20 Z" id="Combined-Shape" fill="#81B0D7" transform="translate(20.000000, 20.000000) rotate(-90.000000) translate(-20.000000, -20.000000) "></path>
                        <polyline id="Rectangle-15" fill="#FC9E9E" points="14 20.3882327 18.5832704 20 19 24.6117673 14.4167296 25 14 20.3882327"></polyline>
                        <polygon id="Triangle-2" fill="#A7D888" points="20 13 23 18 17 18"></polygon>
                        <circle id="Oval-7" fill="#FBEE83" cx="23.5" cy="22.5" r="2.5"></circle>
                        <path d="M36.7217487,30.5781326 C35.5031229,33.0742952 32.9496844,34.7926242 29.9970084,34.7926242 C27.0443323,34.7926242 24.4908939,33.0742952 23.272268,30.5781326 C24.4908939,28.0819699 27.0443323,26.3636409 29.9970084,26.3636409 C32.9496844,26.3636409 35.5031229,28.0819699 36.7217487,30.5781326 Z" id="Combined-Shape" fill="#FFFFFF"></path>
                        <ellipse id="Oval-6" fill="#383838" cx="29.9566475" cy="30.6245115" rx="2.94112695" ry="3.05661602"></ellipse>
                    </g>
                </g>
            </g>
        </g>
    </g>
</svg>